<svg width="12" height="21" viewBox="0 0 12 21" fill="none" xmlns="http://www.w3.org/2000/svg">
<path d="M1.70289 20.9973C1.30571 20.998 0.920787 20.8762 0.614955 20.6531C0.442826 20.5274 0.300541 20.3731 0.196249 20.199C0.091957 20.0248 0.0277071 19.8343 0.00717939 19.6383C-0.0133484 19.4422 0.0102497 19.2446 0.0766213 19.0566C0.142993 18.8686 0.250833 18.694 0.393968 18.5427L8.00951 10.5205L0.665953 2.48335C0.524749 2.33026 0.419301 2.1541 0.355671 1.96501C0.292041 1.77592 0.271483 1.57763 0.295178 1.38152C0.318873 1.18541 0.386354 0.99536 0.493743 0.822289C0.601132 0.649218 0.746312 0.496539 0.920937 0.373029C1.09682 0.236776 1.30279 0.134003 1.52592 0.0711587C1.74905 0.00831445 1.98453 -0.0132433 2.21758 0.0078373C2.45062 0.0289179 2.6762 0.0921822 2.88016 0.19366C3.08411 0.295138 3.26205 0.432638 3.40279 0.597531L11.6133 9.57762C11.8633 9.84542 12 10.1813 12 10.528C12 10.8747 11.8633 11.2106 11.6133 11.4784L3.11381 20.4585C2.94328 20.6396 2.72665 20.7828 2.48151 20.8764C2.23637 20.97 1.96961 21.0114 1.70289 20.9973Z" fill="#A05485"/>
</svg>
