<svg width="12" height="21" viewBox="0 0 12 21" fill="none" xmlns="http://www.w3.org/2000/svg">
<path d="M10.2971 0.00270844C10.6943 0.00202519 11.0792 0.123817 11.385 0.346944C11.5572 0.472589 11.6995 0.6269 11.8038 0.801035C11.908 0.975169 11.9723 1.16571 11.9928 1.36174C12.0133 1.55777 11.9898 1.75544 11.9234 1.94343C11.857 2.13141 11.7492 2.30603 11.606 2.45726L3.99049 10.4795L11.334 18.5167C11.4753 18.6697 11.5807 18.8459 11.6443 19.035C11.708 19.2241 11.7285 19.4224 11.7048 19.6185C11.6811 19.8146 11.6136 20.0046 11.5063 20.1777C11.3989 20.3508 11.2537 20.5035 11.0791 20.627C10.9032 20.7632 10.6972 20.866 10.4741 20.9288C10.2509 20.9917 10.0155 21.0132 9.78242 20.9922C9.54938 20.9711 9.3238 20.9078 9.11984 20.8063C8.91589 20.7049 8.73795 20.5674 8.59721 20.4025L0.386706 11.4224C0.136682 11.1546 1.13416e-07 10.8187 1.13416e-07 10.472C1.13416e-07 10.1253 0.136682 9.7894 0.386706 9.5216L8.88619 0.541514C9.05672 0.36039 9.27335 0.217212 9.51849 0.123596C9.76363 0.0299805 10.0304 -0.0114361 10.2971 0.00270844Z" fill="#A05485"/>
</svg>
