<svg width="17" height="14" viewBox="0 0 17 14" fill="none" xmlns="http://www.w3.org/2000/svg">
<path d="M14.1667 0H2.5C1.83696 0 1.20107 0.263392 0.732233 0.732233C0.263392 1.20107 0 1.83696 0 2.5V10.8333C0 11.4964 0.263392 12.1323 0.732233 12.6011C1.20107 13.0699 1.83696 13.3333 2.5 13.3333H14.1667C14.8297 13.3333 15.4656 13.0699 15.9344 12.6011C16.4033 12.1323 16.6667 11.4964 16.6667 10.8333V2.5C16.6667 1.83696 16.4033 1.20107 15.9344 0.732233C15.4656 0.263392 14.8297 0 14.1667 0V0ZM14.1667 1.66667L8.75 5.39167C8.62332 5.46481 8.47961 5.50331 8.33333 5.50331C8.18705 5.50331 8.04335 5.46481 7.91667 5.39167L2.5 1.66667H14.1667Z" fill="white"/>
</svg>
