<svg width="20" height="21" viewBox="0 0 20 21" fill="none" xmlns="http://www.w3.org/2000/svg">
<path d="M10 0C4.47715 0 0 4.70101 0 10.5C0 16.299 4.47715 21 10 21C15.5229 21 20 16.299 20 10.5C20 4.70101 15.5229 0 10 0ZM12.2132 6.0113C13.4014 5.99181 14.476 6.67011 14.9854 7.82647C15.4567 9.3552 15.0623 10.9104 14.2313 12.0825C13.6827 12.8773 13.0271 13.5627 12.3569 14.1616C11.7403 14.7643 10.3601 15.9569 9.9943 15.99C9.67102 15.9251 9.30808 15.5407 9.05142 15.3431C7.60918 14.1919 6.05697 12.7926 5.26977 11.262C4.60975 9.79249 4.60855 7.97435 5.63577 6.84775C6.96772 5.58691 8.9756 5.83369 9.9943 7.15094C10.2679 6.77828 10.6044 6.48478 11.0037 6.27127C11.4083 6.10169 11.8171 6.01781 12.2132 6.0113V6.0113Z" fill="white"/>
</svg>
