<svg width="32" height="29" viewBox="0 0 32 29" fill="none" xmlns="http://www.w3.org/2000/svg">
<path d="M16 9.0625C17.1046 9.0625 18 8.25102 18 7.25C18 6.24898 17.1046 5.4375 16 5.4375C14.8954 5.4375 14 6.24898 14 7.25C14 8.25102 14.8954 9.0625 16 9.0625Z" fill="#A05485"/>
<path d="M16 16.3125C17.1046 16.3125 18 15.501 18 14.5C18 13.499 17.1046 12.6875 16 12.6875C14.8954 12.6875 14 13.499 14 14.5C14 15.501 14.8954 16.3125 16 16.3125Z" fill="#A05485"/>
<path d="M16 23.5625C17.1046 23.5625 18 22.751 18 21.75C18 20.749 17.1046 19.9375 16 19.9375C14.8954 19.9375 14 20.749 14 21.75C14 22.751 14.8954 23.5625 16 23.5625Z" fill="#A05485"/>
</svg>
